<svg width="2134" height="1511" viewBox="0 0 2134 1511" fill="none" xmlns="http://www.w3.org/2000/svg">
<g style="mix-blend-mode:overlay" filter="url(#filter0_b_10_2)">
<rect x="306.503" width="1474.9" height="1511" fill="url(#paint0_diamond_10_2)"/>
<rect x="307.003" y="0.5" width="1473.9" height="1510" stroke="#E40101"/>
</g>
<path d="M404.747 267.531C413.56 267.531 419.326 266.688 422.044 265C424.763 263.219 426.497 261.344 427.247 259.375C427.997 257.406 428.372 255.016 428.372 252.203V102.859C428.372 96.7656 427.341 92.9688 425.279 91.4688C421.529 88.8437 414.685 87.5312 404.747 87.5312V72.0625H471.122L533.419 234.766L593.185 72.0625H658.857V87.5312C649.951 87.5312 644.138 88.4219 641.419 90.2031C638.701 91.8906 636.966 93.7188 636.216 95.6875C635.466 97.6562 635.091 100.047 635.091 102.859V252.203C635.091 258.203 636.169 262 638.326 263.594C642.076 266.219 648.919 267.531 658.857 267.531V283H580.81V267.531C589.622 267.531 595.294 266.688 597.826 265C600.451 263.219 602.091 261.344 602.747 259.375C603.404 257.406 603.732 255.016 603.732 252.203V102.156L538.482 283H522.872L450.872 102.016V252.203C450.872 258.297 451.904 262.094 453.966 263.594C457.716 266.219 464.56 267.531 474.497 267.531V283H404.747V267.531ZM710.607 337.281C713.044 337.75 715.06 337.938 716.654 337.844C718.341 337.844 720.31 337.047 722.56 335.453C724.904 333.953 727.154 331.938 729.31 329.406C733.529 324.625 737.138 318.812 740.138 311.969C743.232 305.125 744.779 299.734 744.779 295.797C744.779 291.859 744.263 288.859 743.232 286.797C742.294 284.734 741.169 282.953 739.857 281.453C738.544 279.859 737.138 278.312 735.638 276.812C734.138 275.312 732.919 273.297 731.982 270.766L691.201 170.922C689.232 165.109 687.169 161.172 685.013 159.109C682.857 156.953 678.122 155.875 670.81 155.875V140.406H746.466V155.875C735.685 155.875 729.169 156.766 726.919 158.547C724.669 160.234 723.497 162.016 723.404 163.891C723.31 165.766 723.732 168.109 724.669 170.922L759.685 266.547L795.263 170.922C797.419 165.484 796.763 161.641 793.294 159.391C789.826 157.047 782.466 155.875 771.216 155.875V140.406H836.747V155.875C830.56 155.875 825.872 157.141 822.685 159.672C819.591 162.109 817.06 165.859 815.091 170.922L777.404 271.469C774.122 278.875 771.029 286.094 768.122 293.125C765.216 300.156 762.263 306.766 759.263 312.953C752.607 326.734 745.388 337.141 737.607 344.172C729.826 351.203 720.732 354.719 710.326 354.719C700.013 354.719 692.044 352.141 686.419 346.984C680.794 341.922 677.982 336.016 677.982 329.266C677.982 322.609 679.857 317.312 683.607 313.375C687.357 309.438 692.044 307.469 697.669 307.469C705.732 307.469 711.31 311.031 714.404 318.156C715.341 320.312 715.81 322.609 715.81 325.047C715.81 329.734 714.076 333.812 710.607 337.281ZM859.247 264.719C859.247 258.719 861.404 253.656 865.716 249.531C870.029 245.312 875.185 243.203 881.185 243.203C887.185 243.203 892.341 245.312 896.654 249.531C900.966 253.656 903.122 258.719 903.122 264.719C903.122 270.625 900.966 275.641 896.654 279.766C892.435 283.797 887.279 285.812 881.185 285.812C875.091 285.812 869.888 283.797 865.576 279.766C861.357 275.641 859.247 270.625 859.247 264.719Z" fill="black" fill-opacity="0.35"/>
<path d="M1217.1 1353.56C1225.91 1353.56 1231.67 1352.72 1234.39 1351.03C1237.11 1349.25 1238.85 1347.38 1239.6 1345.41C1240.35 1343.44 1240.72 1341.05 1240.72 1338.23V1188.89C1240.72 1182.8 1239.69 1179 1237.63 1177.5C1233.88 1174.88 1227.03 1173.56 1217.1 1173.56V1158.09H1283.47L1345.77 1320.8L1405.53 1158.09H1471.21V1173.56C1462.3 1173.56 1456.49 1174.45 1453.77 1176.23C1451.05 1177.92 1449.32 1179.75 1448.57 1181.72C1447.82 1183.69 1447.44 1186.08 1447.44 1188.89V1338.23C1447.44 1344.23 1448.52 1348.03 1450.67 1349.62C1454.42 1352.25 1461.27 1353.56 1471.21 1353.56V1369.03H1393.16V1353.56C1401.97 1353.56 1407.64 1352.72 1410.17 1351.03C1412.8 1349.25 1414.44 1347.38 1415.1 1345.41C1415.75 1343.44 1416.08 1341.05 1416.08 1338.23V1188.19L1350.83 1369.03H1335.22L1263.22 1188.05V1338.23C1263.22 1344.33 1264.25 1348.12 1266.32 1349.62C1270.07 1352.25 1276.91 1353.56 1286.85 1353.56V1369.03H1217.1V1353.56ZM1522.96 1423.31C1525.39 1423.78 1527.41 1423.97 1529 1423.88C1530.69 1423.88 1532.66 1423.08 1534.91 1421.48C1537.25 1419.98 1539.5 1417.97 1541.66 1415.44C1545.88 1410.66 1549.49 1404.84 1552.49 1398C1555.58 1391.16 1557.13 1385.77 1557.13 1381.83C1557.13 1377.89 1556.61 1374.89 1555.58 1372.83C1554.64 1370.77 1553.52 1368.98 1552.21 1367.48C1550.89 1365.89 1549.49 1364.34 1547.99 1362.84C1546.49 1361.34 1545.27 1359.33 1544.33 1356.8L1503.55 1256.95C1501.58 1251.14 1499.52 1247.2 1497.36 1245.14C1495.21 1242.98 1490.47 1241.91 1483.16 1241.91V1226.44H1558.82V1241.91C1548.03 1241.91 1541.52 1242.8 1539.27 1244.58C1537.02 1246.27 1535.85 1248.05 1535.75 1249.92C1535.66 1251.8 1536.08 1254.14 1537.02 1256.95L1572.03 1352.58L1607.61 1256.95C1609.77 1251.52 1609.11 1247.67 1605.64 1245.42C1602.17 1243.08 1594.82 1241.91 1583.57 1241.91V1226.44H1649.1V1241.91C1642.91 1241.91 1638.22 1243.17 1635.03 1245.7C1631.94 1248.14 1629.41 1251.89 1627.44 1256.95L1589.75 1357.5C1586.47 1364.91 1583.38 1372.12 1580.47 1379.16C1577.57 1386.19 1574.61 1392.8 1571.61 1398.98C1564.96 1412.77 1557.74 1423.17 1549.96 1430.2C1542.17 1437.23 1533.08 1440.75 1522.67 1440.75C1512.36 1440.75 1504.39 1438.17 1498.77 1433.02C1493.14 1427.95 1490.33 1422.05 1490.33 1415.3C1490.33 1408.64 1492.21 1403.34 1495.96 1399.41C1499.71 1395.47 1504.39 1393.5 1510.02 1393.5C1518.08 1393.5 1523.66 1397.06 1526.75 1404.19C1527.69 1406.34 1528.16 1408.64 1528.16 1411.08C1528.16 1415.77 1526.42 1419.84 1522.96 1423.31ZM1671.6 1350.75C1671.6 1344.75 1673.75 1339.69 1678.07 1335.56C1682.38 1331.34 1687.53 1329.23 1693.53 1329.23C1699.53 1329.23 1704.69 1331.34 1709 1335.56C1713.32 1339.69 1715.47 1344.75 1715.47 1350.75C1715.47 1356.66 1713.32 1361.67 1709 1365.8C1704.78 1369.83 1699.63 1371.84 1693.53 1371.84C1687.44 1371.84 1682.24 1369.83 1677.92 1365.8C1673.71 1361.67 1671.6 1356.66 1671.6 1350.75Z" fill="black" fill-opacity="0.15"/>
<defs>
<filter id="filter0_b_10_2" x="302.503" y="-4" width="1482.9" height="1519" filterUnits="userSpaceOnUse" color-interpolation-filters="sRGB">
<feFlood flood-opacity="0" result="BackgroundImageFix"/>
<feGaussianBlur in="BackgroundImage" stdDeviation="2"/>
<feComposite in2="SourceAlpha" operator="in" result="effect1_backgroundBlur_10_2"/>
<feBlend mode="normal" in="SourceGraphic" in2="effect1_backgroundBlur_10_2" result="shape"/>
</filter>
<radialGradient id="paint0_diamond_10_2" cx="0" cy="0" r="1" gradientUnits="userSpaceOnUse" gradientTransform="translate(1043.95 755.5) rotate(90) scale(755.5 737.451)">
<stop offset="0.0677083" stop-color="white"/>
<stop offset="0.208333" stop-color="white"/>
<stop offset="0.598858" stop-color="#FFCF26"/>
<stop offset="0.833333" stop-color="white"/>
</radialGradient>
</defs>
</svg>
